<svg viewBox="0 0 163 52" version="1.1" xmlns="http://www.w3.org/2000/svg" xmlns:xlink="http://www.w3.org/1999/xlink">
<title>comunidad</title>
<desc>Created using Figma</desc>
<g id="Canvas" transform="translate(4549 5589)">
<g id="comunidad">
<use xlink:href="#path0_fill" transform="translate(-4548.56 -5588.53)" fill="#D65142"/>
<use xlink:href="#path1_fill" transform="translate(-4548.56 -5588.53)" fill="#D65142"/>
<use xlink:href="#path2_fill" transform="translate(-4548.56 -5588.53)" fill="#D65142"/>
<use xlink:href="#path3_fill" transform="translate(-4548.56 -5588.53)" fill="#D65142"/>
<use xlink:href="#path4_fill" transform="translate(-4548.56 -5588.53)" fill="#D65142"/>
<use xlink:href="#path5_fill" transform="translate(-4548.56 -5588.53)" fill="#D65142"/>
<use xlink:href="#path6_fill" transform="translate(-4548.56 -5588.53)" fill="#D65142"/>
</g>
</g>
<defs>
<path id="path0_fill" d="M 150.66 43.4035C 146.466 43.4035 143.858 41.5759 143.858 39.1782C 143.858 37.4335 144.997 36.2934 146.466 36.2934C 148.014 36.2934 149.112 37.1053 149.112 38.3663C 149.112 39.9936 147.768 41.0058 145.001 41.0058C 146.303 42.5122 148.464 42.9959 150.581 42.9959C 153.635 42.9959 155.1 41.4135 155.1 39.7483C 155.1 35.6024 145.978 35.1567 145.978 29.3076C 145.978 25.5279 148.783 22.2803 155.18 22.2803C 159.011 22.2803 161.982 24.1494 161.982 26.5437C 161.982 28.1709 160.839 29.0243 159.374 29.0243C 157.83 29.0243 156.728 28.2124 156.728 26.9514C 156.728 25.3241 157.868 24.3498 160.351 24.3498C 159.049 23.1717 157.217 22.6811 155.464 22.6811C 153.185 22.6811 152.534 24.3498 152.534 25.3621C 152.534 30.4028 161.657 31.0903 161.657 36.4938C 161.657 40.6776 157.788 43.4035 150.66 43.4035ZM 129.034 37.8757C 129.034 40.9229 129.727 42.9924 131.442 42.9924C 134.292 42.9924 136.775 38.8915 136.775 27.7909C 136.775 24.7437 136.083 22.6708 134.33 22.6708C 131.521 22.6708 129.034 26.7752 129.034 37.8723L 129.034 37.8757ZM 143.616 31.2078C 143.616 38.5598 138.646 43.3966 131.396 43.3966C 125.613 43.3966 122.191 39.9417 122.191 34.4588C 122.191 27.1068 127.078 22.2734 134.368 22.2734C 140.194 22.2734 143.612 25.7283 143.612 31.2112L 143.616 31.2078ZM 114 23.0888C 113.227 28.6961 111.637 38.6358 111.637 40.3149C 111.637 41.9007 112.209 43.3621 114.855 43.3621C 116.739 43.3672 118.581 42.8154 120.151 41.7763L 120.23 41.3686C 119.918 41.5806 119.548 41.6938 119.171 41.6934C 118.765 41.6934 118.44 41.5724 118.44 40.9229C 118.44 40.111 120.722 24.5088 120.965 22.6811L 112.043 22.6811L 112.001 23.0888L 114 23.0888ZM 108.995 40.3149C 106.468 42.3704 103.291 43.4638 100.031 43.4001C 94.0432 43.4001 90.2541 39.7828 90.2541 34.2999C 90.2541 26.174 97.4235 22.2734 102.962 22.2734C 108.378 22.2734 110.983 24.9959 110.983 27.3936C 110.983 29.3041 109.639 30.7656 107.36 30.7656C 105.566 30.7656 104.752 29.7084 104.752 28.2849C 104.752 26.6611 105.933 24.7091 108.991 24.7091C 108.337 23.7349 106.463 22.84 104.714 22.84C 99.7024 22.84 97.4235 28.0811 97.4235 35.3122C 97.4235 40.6362 99.6228 42.4638 102.556 42.4638C 105.164 42.4638 107.485 41.1233 109.033 39.7794L 108.995 40.3149ZM 74.537 37.8757C 74.537 40.9229 75.2297 42.9924 76.9406 42.9924C 79.791 42.9924 82.2778 38.8915 82.2778 27.7909C 82.2778 24.7437 81.5851 22.6708 79.8326 22.6708C 77.0203 22.6708 74.537 26.7752 74.537 37.8723L 74.537 37.8757ZM 89.1181 31.2078C 89.1181 38.5598 84.1481 43.3966 76.8991 43.3966C 71.1186 43.3966 67.6967 39.9417 67.6967 34.4588C 67.6967 27.1068 72.5871 22.2734 79.8776 22.2734C 85.7032 22.2734 89.1216 25.7283 89.1216 31.2112L 89.1181 31.2078ZM 58.1202 33.4085C 57.4691 38.2039 55.6369 39.0158 54.4559 39.0158C 52.4609 39.0158 51.602 37.392 51.602 34.3034C 51.602 26.0116 54.4974 23.7798 57.2266 23.7798C 57.9944 23.7517 58.7552 23.9346 59.4259 24.3084L 58.1202 33.4085ZM 56.8006 43.0339C 55.7824 50.4308 52.6861 50.9594 50.7742 50.9594C 49.0217 50.9594 47.1896 50.068 46.5384 49.0903C 49.5932 49.0903 50.7361 47.1417 50.7361 45.5145C 50.7361 44.0911 49.9603 43.0339 48.1282 43.0339C 45.8457 43.0339 44.5054 44.4987 44.5054 46.4093C 44.5054 48.807 47.1134 51.526 52.5267 51.526C 57.9401 51.526 62.9171 48.845 64.1778 39.9452L 66.6646 22.2734L 66.2559 22.2734L 59.4952 23.8972C 58.0271 22.8666 56.282 22.3008 54.487 22.2734C 48.4572 22.2734 44.5504 27.8773 44.5504 33.9337C 44.5504 39.116 47.4008 41.9352 51.4323 41.9352C 53.1017 41.9352 56.4023 41.1233 57.6665 36.8185L 56.8006 43.0339ZM 35.8398 22.6811C 37.3083 22.6811 37.7551 24.9579 37.7551 26.2984C 37.7551 30.2819 36.2069 33.6504 30.7866 34.0581C 31.0325 28.5752 33.0275 22.6811 35.8364 22.6811L 35.8398 22.6811ZM 41.9874 39.7863C 40.4393 41.1302 38.1188 42.4707 35.5108 42.4707C 32.5772 42.4707 30.7416 40.6431 30.7416 35.3191L 30.7416 34.5037C 42.3095 34.3448 43.9374 30.8485 43.9374 27.8427C 43.9374 24.6746 40.557 22.2769 35.9125 22.2769C 30.371 22.2769 23.5757 26.1775 23.5757 34.3034C 23.5757 39.7863 26.9976 43.4035 32.979 43.4035C 36.2391 43.4684 39.4161 42.3749 41.9424 40.3183L 41.9874 39.7863ZM 9.81889 22.6811L 0.897034 22.6811L 0.855473 23.0888L 2.85389 23.0888L 0 42.9959L 6.92691 42.9959L 8.88029 29.7118C 9.45176 25.8907 11.7757 25.0373 12.8737 25.0373C 14.1344 25.0373 14.9517 25.6489 14.9517 27.1517C 14.9517 28.779 13.1992 38.6496 13.1992 40.3149C 13.1992 41.9007 13.8503 43.3621 16.4999 43.3621C 18.3713 43.3729 20.2025 42.8202 21.754 41.7763L 21.8336 41.3686C 21.54 41.5846 21.1836 41.6986 20.8188 41.6934C 20.4067 41.6934 20.043 41.5724 20.043 40.9229C 20.043 40.111 21.792 29.1383 21.792 27.3936C 21.792 23.9007 19.6724 22.2734 16.6176 22.2734C 13.8088 22.2734 11.0761 23.6139 9.20586 27.2312L 9.81889 22.6811Z"/>
<path id="path1_fill" d="M 114.052 5.58691L 113.127 5.58691L 113.127 10.9109L 114.066 10.9109C 115.292 10.9109 115.891 9.79151 115.891 8.30937C 115.891 6.82722 115.281 5.58691 114.052 5.58691Z"/>
<path id="path2_fill" d="M 99.9794 5.58691L 99.0547 5.58691L 99.0547 10.9109L 99.9933 10.9109C 101.219 10.9109 101.815 9.79151 101.815 8.30937C 101.815 6.82722 101.209 5.58691 99.9794 5.58691Z"/>
<path id="path3_fill" d="M 89.9184 6.17041L 89.8837 6.17041L 89.5824 7.04795L 88.9971 8.5301L 90.7773 8.5301L 90.192 7.04795L 89.9184 6.17041Z"/>
<path id="path4_fill" d="M 80.2968 5.58691L 79.3721 5.58691L 79.3721 10.9109L 80.3072 10.9109C 81.5333 10.9109 82.129 9.79151 82.129 8.30937C 82.129 6.82722 81.5229 5.58691 80.2968 5.58691Z"/>
<path id="path5_fill" d="M 33.0065 5.62109C 31.8463 5.62109 31.5415 6.58155 31.5415 8.24681C 31.5415 9.91207 31.9502 10.8276 33.0862 10.8276C 34.0317 10.8276 34.5755 10.223 34.5755 8.36427C 34.5755 6.28789 33.9867 5.62109 33.0065 5.62109Z"/>
<path id="path6_fill" d="M 14.7402 0L 14.7402 16.929L 24.0708 16.929L 24.0708 23.051L 34.9807 16.9981L 134.056 16.929L 134.174 0L 14.7402 0ZM 28.2477 6.56429L 26.3636 6.56429L 26.1835 5.59692C 25.9011 5.55696 25.6166 5.53389 25.3315 5.52782C 24.1608 5.52782 23.5651 6.46064 23.5651 7.9877C 23.5651 9.91553 24.0465 10.8933 25.5081 10.8933C 25.7403 10.8954 25.9723 10.8757 26.2008 10.8345L 26.3809 9.92244L 28.2789 9.92244L 28.2789 12.3029C 27.247 12.5068 26.1962 12.6006 25.1444 12.5827C 22.3494 12.5827 20.8359 10.9244 20.8359 8.37119C 20.8359 5.52437 22.391 3.84184 25.2691 3.84184C 26.2827 3.83478 27.2934 3.95079 28.2789 4.18733L 28.2477 6.56429ZM 33.0515 12.6103C 30.1768 12.6103 28.7845 10.952 28.7845 8.32974C 28.7845 5.41381 30.0695 3.86257 33.0654 3.86257C 35.8153 3.86257 37.3081 5.33435 37.3081 8.04989C 37.3185 11.104 35.8708 12.6 33.0619 12.6L 33.0515 12.6103ZM 50.2199 5.52782L 49.1323 5.52782L 49.1323 10.9796L 50.1159 10.9796L 50.1159 12.4825L 45.6827 12.4825L 45.6827 10.9658L 46.656 10.9105L 46.656 7.50402L 46.7495 6.37082L 46.6802 6.37082L 44.5052 12.4825L 42.8427 12.4825L 40.6884 6.357L 40.6192 6.357L 40.7231 7.37273L 40.7231 10.9658L 41.7205 10.9658L 41.7205 12.4791L 37.8588 12.4791L 37.8588 10.9796L 38.8355 10.8622L 38.8355 5.52782L 37.8588 5.52782L 37.8588 4.01458L 42.3301 4.01458L 43.861 8.41265L 43.9233 8.41265L 45.513 4.01458L 50.2199 4.01458L 50.2199 5.52782ZM 60.2639 5.52782L 59.2941 5.52782L 59.2941 9.50785C 59.2941 11.8054 57.3303 12.6173 55.2938 12.6173C 53.3647 12.6173 51.5048 12.0092 51.5048 9.44221L 51.5048 5.52782L 50.535 5.52782L 50.535 4.01458L 55.2003 4.01458L 55.2003 5.52782L 54.1232 5.52782L 54.1232 9.45949C 54.1232 10.4407 54.8505 10.7793 55.5397 10.7793C 56.3017 10.7793 57.0255 10.4649 57.0255 9.45949L 57.0255 5.52782L 56.2047 5.52782L 56.2047 4.01458L 60.2639 4.01458L 60.2639 5.52782ZM 70.159 5.52782L 69.1926 5.52782L 69.1926 12.5067L 66.6678 12.5067L 63.897 7.94624C 63.7328 7.70618 63.6001 7.44609 63.5022 7.17235L 63.4641 7.17235C 63.5084 7.4975 63.5293 7.82541 63.5264 8.15354L 63.5264 10.9658L 64.5204 10.9658L 64.5204 12.4791L 60.6448 12.4791L 60.6448 10.9796L 61.6146 10.8622L 61.6146 5.52782L 60.6448 5.52782L 60.6448 4.01458L 64.3265 4.01458L 66.8167 7.98079C 66.9981 8.26141 67.159 8.55468 67.2981 8.85833L 67.3328 8.85833C 67.3085 8.59922 67.2981 8.00498 67.2981 7.82187L 67.2981 5.52782L 66.3284 5.52782L 66.3284 4.01458L 70.1382 4.01458L 70.159 5.52782ZM 75.3091 5.52782L 74.2216 5.52782L 74.2216 10.9796L 75.2017 10.9796L 75.2017 12.4825L 70.63 12.4825L 70.63 10.9796L 71.5997 10.8622L 71.5997 5.52782L 70.63 5.52782L 70.63 4.01458L 75.3056 4.01458L 75.3091 5.52782ZM 80.5493 12.4929L 75.7801 12.4929L 75.7801 10.9796L 76.7499 10.8622L 76.7499 5.52782L 75.7801 5.52782L 75.7801 4.01458L 80.48 4.01458C 83.8465 4.01458 84.889 6.04606 84.889 8.24682C 84.8925 11.1558 82.8802 12.4825 80.5285 12.4825L 80.5493 12.4929ZM 95.3209 12.4929L 90.7423 12.4929L 90.7423 10.9796L 91.7813 10.9796L 91.3934 10.0192L 88.3871 10.0192L 88.0027 10.99L 89.0417 10.99L 89.0417 12.4929L 85.031 12.4929L 85.031 10.9796L 85.8623 10.8622L 88.8928 3.95239L 91.525 3.95239L 94.4932 10.9071L 95.3036 10.9762L 95.3209 12.4929ZM 100.232 12.4929L 95.4629 12.4929L 95.4629 10.9796L 96.4327 10.8622L 96.4327 5.52782L 95.4629 5.52782L 95.4629 4.01458L 100.166 4.01458C 103.536 4.01458 104.579 6.04606 104.579 8.24682C 104.596 11.1558 102.566 12.4825 100.215 12.4825L 100.232 12.4929ZM 114.304 12.4929L 109.538 12.4929L 109.538 10.9796L 110.508 10.8622L 110.508 5.52782L 109.538 5.52782L 109.538 4.01458L 114.242 4.01458C 117.608 4.01458 118.651 6.04606 118.651 8.24682C 118.647 11.1558 116.635 12.4825 114.294 12.4825L 114.304 12.4929ZM 126.96 12.4929L 119.208 12.4929L 119.208 10.9796L 120.182 10.8622L 120.182 5.52782L 119.208 5.52782L 119.208 4.01458L 126.998 4.01458L 126.998 6.59193L 125.207 6.59193L 125.065 5.5831L 122.797 5.5831L 122.797 7.44183L 124.234 7.44183L 124.282 7.04452L 125.74 7.04452L 125.74 9.46294L 124.282 9.46294L 124.234 8.96198L 122.797 8.96198L 122.797 10.9244L 125.086 10.9244L 125.252 9.91899L 127.039 9.91899L 126.96 12.4929Z"/>
</defs>
</svg>
