
<svg version="1.1" id="Capa_1" xmlns="http://www.w3.org/2000/svg" xmlns:xlink="http://www.w3.org/1999/xlink" x="0px" y="0px"
	 viewBox="0 0 150.8 133" style="enable-background:new 0 0 150.8 133;" xml:space="preserve">
<style type="text/css">
	.st0{fill:#FFFFFF;}
	.st1{fill:#1A1A1A;}
</style>
<g>
	<path d="M130.1,60.8c-3.7-7.7-11.6-12.9-20.2-12.9c-5.3,0-10.2,1.9-14.1,5.1c-5.1-12.8-17.3-21.8-31.5-21.8
		c-18.8,0-34.1,15.8-34.1,35.3c0,19.4,15.3,35.3,34.1,35.3c5.3,0,10.3-1.2,14.7-3.5c3,2.9,7,4.6,11.4,4.6H130
		c11.4,0,20.7-9.5,20.7-21.1C150.7,70.3,141.4,60.9,130.1,60.8z M73.7,85.9c0,1.6,0.2,3.1,0.6,4.6c-3.1,1.4-6.5,2.2-10.1,2.2
		c-14,0-25.3-11.8-25.3-26.2c0-14.5,11.4-26.2,25.3-26.2c12.4,0,22.8,9.3,24.9,21.6c-1,2.3-1.6,4.7-1.8,7.3
		C79.6,70.6,73.7,77.6,73.7,85.9z M130,93.9H90.4c-1.3,0-2.6-0.3-3.7-0.9c-2.5-1.3-4.3-4-4.3-7.1c0-0.5,0-0.9,0.1-1.4
		c0.4-2.4,1.9-4.4,3.9-5.6c1.2-0.7,2.5-1,3.9-1c0.3,0,0.6,0,1,0.1c1.3,0.2,2.7-0.3,3.6-1.3s1.4-2.4,1.2-3.8c-0.1-0.7-0.1-1.4-0.1-2
		c0-2.7,0.8-5.2,2.1-7.4c2.4-3.9,6.7-6.5,11.7-6.5c6.1,0,11.5,4.1,13.2,9.9c0.6,2.2,2.7,3.5,4.9,3.1c0.7-0.1,1.3-0.2,2-0.2
		c6.6,0,12,5.4,12,12C141.9,88.5,136.6,93.9,130,93.9z"/>
	<path d="M64.2,111c-2.4,0-4.4,2-4.4,4.5v12.9c0,2.5,2,4.5,4.4,4.5s4.4-2,4.4-4.5v-12.9C68.6,113,66.6,111,64.2,111z"/>
	<path d="M64.2,22c2.4,0,4.4-2,4.4-4.5V4.6c0-2.5-2-4.5-4.4-4.5s-4.4,2-4.4,4.5v12.9C59.9,20,61.8,22,64.2,22z"/>
	<path d="M27.7,35.1c0.9,0.9,2,1.3,3.1,1.3s2.2-0.4,3.1-1.3c1.7-1.8,1.7-4.6,0-6.4l-8.8-9.1c-1.7-1.8-4.5-1.8-6.2,0s-1.7,4.6,0,6.4
		L27.7,35.1z"/>
	<path d="M21.3,66.5c0-2.5-2-4.5-4.4-4.5H4.5c-2.4,0-4.4,2-4.4,4.5s2,4.5,4.4,4.5h12.4C19.3,71,21.3,69,21.3,66.5z"/>
	<path d="M97.7,36.4c1.1,0,2.2-0.4,3.1-1.3l8.8-9.1c1.7-1.8,1.7-4.6,0-6.4s-4.5-1.8-6.2,0l-8.8,9.1c-1.7,1.8-1.7,4.6,0,6.4
		C95.4,35.9,96.5,36.4,97.7,36.4z"/>
	<path d="M27.7,97.9l-8.8,9.1c-1.7,1.8-1.7,4.6,0,6.4c0.9,0.9,2,1.3,3.1,1.3s2.2-0.4,3.1-1.3l8.8-9.1c1.7-1.8,1.7-4.6,0-6.4
		C32.2,96.2,29.4,96.2,27.7,97.9z"/>
	<path class="st1" d="M88.9,125.3l8.5-8.8c1.2-1.2,1.2-3.1,0-4.3c-1.2-1.2-3-1.2-4.2,0l-8.5,8.8c-1.2,1.2-1.2,3.1,0,4.3
		c0.6,0.6,1.3,0.9,2.1,0.9C87.5,126.2,88.3,125.9,88.9,125.3z"/>
	<path class="st1" d="M107,125.3l8.5-8.8c1.2-1.2,1.2-3.1,0-4.3c-1.2-1.2-3-1.2-4.2,0l-8.5,8.8c-1.2,1.2-1.2,3.1,0,4.3
		c0.6,0.6,1.3,0.9,2.1,0.9C105.7,126.2,106.4,125.9,107,125.3z"/>
	<path class="st1" d="M125.2,125.3l8.5-8.8c1.2-1.2,1.2-3.1,0-4.3c-1.2-1.2-3-1.2-4.2,0l-8.5,8.8c-1.2,1.2-1.2,3.1,0,4.3
		c0.6,0.6,1.3,0.9,2.1,0.9C123.8,126.2,124.6,125.9,125.2,125.3z"/>
</g>
</svg>