<svg xmlns="http://www.w3.org/2000/svg" viewBox="0 0 53.239 39"><defs><style>.a{fill:#126fff}</style></defs><path class="a" d="M53.217 20.6a26.777 26.777 0 00-1.368-4.13 27.449 27.449 0 00-5.772-8.583 26.626 26.626 0 00-8.583-5.772 27.12 27.12 0 00-21 0A27.066 27.066 0 002.14 16.5 26.5 26.5 0 000 26.994a27.011 27.011 0 002.115 10.5c.149.323.274.672.448 1a.894.894 0 001.244.4.885.885 0 00.373-1.144c-.149-.3-.274-.6-.423-.921a25.327 25.327 0 015.4-27.666 25.282 25.282 0 018.011-5.4 25.214 25.214 0 0133.015 13.41 24.111 24.111 0 011.269 3.856.882.882 0 00.871.672.9.9 0 00.9-1.095"/><path class="a" d="M10.823 24.232c0-3.682 1.891-6.145 5.971-6.145a13.355 13.355 0 013.529.423v2.637h-1.315l-.174-1.592a11.094 11.094 0 00-1.941-.2c-3.06 0-4.13 1.916-4.13 4.578 0 3.483 1.244 4.9 4.155 4.9a10.226 10.226 0 001.916-.2l.249-1.592h1.319l-.1 2.588a13.236 13.236 0 01-3.558.473c-4.03-.048-5.921-2.063-5.921-5.87zM21.521 28.815l.97-.075v-9.956h-1.194v-1.095l2.687-.174.149.124v11.176h1.07v1.09h-3.682zM26.547 27.421l.025-4.677h-1.045v-1.099l2.538-.124.149.124-.025 5.5a1.63 1.63 0 001.791 1.791 3.72 3.72 0 002.015-.7l.025-5.5h-1.07v-1.091l2.538-.124.149.124-.025 7.066 1.07.05v1.095l-2.364.124-.124-.149-.124-.8a4.649 4.649 0 01-2.811 1.07 2.489 2.489 0 01-2.712-2.68zM36.1 29.656V18.784h-1.169v-1.095l2.687-.174.149.124v4.576a4.417 4.417 0 012.488-.8c2.438 0 3.608 1.642 3.608 4.08a4.271 4.271 0 01-4.478 4.578 12.14 12.14 0 01-3.285-.417zm6.021-4.006c0-1.791-.8-3.01-2.388-3.01a3.44 3.44 0 00-1.99.572v5.424a6.243 6.243 0 001.692.249c1.865 0 2.686-1.518 2.686-3.234z"/></svg>