<svg version="1.1" id="Capa_1" xmlns="http://www.w3.org/2000/svg" x="0" y="0" viewBox="0 0 150.8 133" xml:space="preserve"><style>.st1{fill:#1a1a1a}</style><path d="M130.1 60.8c-3.7-7.7-11.6-12.9-20.2-12.9-5.3 0-10.2 1.9-14.1 5.1-5.1-12.8-17.3-21.8-31.5-21.8-18.8 0-34.1 15.8-34.1 35.3 0 19.4 15.3 35.3 34.1 35.3 5.3 0 10.3-1.2 14.7-3.5 3 2.9 7 4.6 11.4 4.6H130c11.4 0 20.7-9.5 20.7-21.1 0-11.5-9.3-20.9-20.6-21zM73.7 85.9c0 1.6.2 3.1.6 4.6-3.1 1.4-6.5 2.2-10.1 2.2-14 0-25.3-11.8-25.3-26.2 0-14.5 11.4-26.2 25.3-26.2 12.4 0 22.8 9.3 24.9 21.6-1 2.3-1.6 4.7-1.8 7.3-7.7 1.4-13.6 8.4-13.6 16.7zm56.3 8H90.4c-1.3 0-2.6-.3-3.7-.9-2.5-1.3-4.3-4-4.3-7.1 0-.5 0-.9.1-1.4.4-2.4 1.9-4.4 3.9-5.6 1.2-.7 2.5-1 3.9-1 .3 0 .6 0 1 .1 1.3.2 2.7-.3 3.6-1.3s1.4-2.4 1.2-3.8c-.1-.7-.1-1.4-.1-2 0-2.7.8-5.2 2.1-7.4 2.4-3.9 6.7-6.5 11.7-6.5 6.1 0 11.5 4.1 13.2 9.9.6 2.2 2.7 3.5 4.9 3.1.7-.1 1.3-.2 2-.2 6.6 0 12 5.4 12 12 0 6.7-5.3 12.1-11.9 12.1zM64.2 111c-2.4 0-4.4 2-4.4 4.5v12.9c0 2.5 2 4.5 4.4 4.5s4.4-2 4.4-4.5v-12.9c0-2.5-2-4.5-4.4-4.5zM64.2 22c2.4 0 4.4-2 4.4-4.5V4.6c0-2.5-2-4.5-4.4-4.5s-4.4 2-4.4 4.5v12.9c.1 2.5 2 4.5 4.4 4.5zM27.7 35.1c.9.9 2 1.3 3.1 1.3s2.2-.4 3.1-1.3c1.7-1.8 1.7-4.6 0-6.4l-8.8-9.1c-1.7-1.8-4.5-1.8-6.2 0s-1.7 4.6 0 6.4l8.8 9.1zM21.3 66.5c0-2.5-2-4.5-4.4-4.5H4.5c-2.4 0-4.4 2-4.4 4.5s2 4.5 4.4 4.5h12.4c2.4 0 4.4-2 4.4-4.5zM97.7 36.4c1.1 0 2.2-.4 3.1-1.3l8.8-9.1c1.7-1.8 1.7-4.6 0-6.4s-4.5-1.8-6.2 0l-8.8 9.1c-1.7 1.8-1.7 4.6 0 6.4.8.8 1.9 1.3 3.1 1.3zM27.7 97.9l-8.8 9.1c-1.7 1.8-1.7 4.6 0 6.4.9.9 2 1.3 3.1 1.3s2.2-.4 3.1-1.3l8.8-9.1c1.7-1.8 1.7-4.6 0-6.4-1.7-1.7-4.5-1.7-6.2 0z"/><path class="st1" d="M88.9 125.3l8.5-8.8c1.2-1.2 1.2-3.1 0-4.3-1.2-1.2-3-1.2-4.2 0l-8.5 8.8c-1.2 1.2-1.2 3.1 0 4.3.6.6 1.3.9 2.1.9.7 0 1.5-.3 2.1-.9zM107 125.3l8.5-8.8c1.2-1.2 1.2-3.1 0-4.3-1.2-1.2-3-1.2-4.2 0l-8.5 8.8c-1.2 1.2-1.2 3.1 0 4.3.6.6 1.3.9 2.1.9s1.5-.3 2.1-.9zM125.2 125.3l8.5-8.8c1.2-1.2 1.2-3.1 0-4.3-1.2-1.2-3-1.2-4.2 0L121 121c-1.2 1.2-1.2 3.1 0 4.3.6.6 1.3.9 2.1.9.7 0 1.5-.3 2.1-.9z"/></svg>