<?xml version="1.0" encoding="utf-8"?>
<!-- Generator: Adobe Illustrator 22.1.0, SVG Export Plug-In . SVG Version: 6.00 Build 0)  -->
<svg version="1.1" id="Capa_1" xmlns="http://www.w3.org/2000/svg" xmlns:xlink="http://www.w3.org/1999/xlink" x="0px" y="0px"
	 viewBox="0 0 33.4 33.4" style="enable-background:new 0 0 33.4 33.4;" xml:space="preserve">
<style type="text/css">
	.st0{fill:#FFFFFF;}
</style>
<g>
	<path class="st0" d="M32.4,13.6L20.2,1.4c-0.1-0.1-0.3-0.3-0.7-0.3c-0.2,0-0.4,0.1-0.6,0.3L10.7,12c-0.3,0.3-0.3,0.8,0,1.2l1,1
		l-7,3.5c-0.2,0-0.4,0.2-0.4,0.6l-3,13.2c0,0.3,0.1,0.6,0.3,0.8c0.2,0.2,0.3,0.3,0.6,0.3l13.3-2.8c0.3,0,0.6-0.3,0.7-0.6l3.5-7
		l0.8,0.8c0.2,0.2,0.3,0.3,0.6,0.3c0.3,0,0.4-0.1,0.6-0.2l10.7-8.1c0.2-0.2,0.3-0.3,0.3-0.6C32.6,13.9,32.5,13.7,32.4,13.6z
		 M12.6,12.5l7-9.2l10.8,10.8l-9.2,7L12.6,12.5z M9.5,23.1c0-0.6,0.5-1.1,1.1-1.1s1.1,0.5,1.1,1.1c0,0.6-0.5,1.1-1.1,1.1
		c-0.2,0-0.5-0.1-0.6-0.2l-0.2-0.2C9.6,23.6,9.5,23.4,9.5,23.1z M17.9,20.8l-3.3,7.1L4.7,30l4.4-4.4C9.6,25.9,10,26,10.5,26h0.1
		c0,0,0,0,0.1,0c1.6,0,3-1.3,3-2.9v-0.1c0-1.7-1.4-3-3.1-3.1c-0.8-0.1-1.6,0.3-2.2,0.9c-0.6,0.6-0.9,1.3-0.9,2.2
		c0,0.6,0.1,1.1,0.4,1.6l-4.4,4.4l2.1-9.9l6.9-3.5L17.9,20.8z"/>
	<path class="st0" d="M22,18.6l6.2-4.7l-1.1-1.2l-5.4,4.2l-5.3-5.3l-1.2,1.2l5.8,5.8c0.2,0.2,0.3,0.2,0.5,0.2S21.9,18.7,22,18.6z"/>
</g>
</svg>
