<svg>
<g>
	<path d="M2504.6,28.1c-15.1,0-27.4,12.3-27.4,27.3c0,12.6,10.2,22.8,22.8,22.8c2.6,0,4.7-2.1,4.7-4.7s-2.1-4.7-4.7-4.7
		c-7.4,0-13.4-6-13.4-13.4c0-9.9,8-17.9,17.9-17.9c13,0,23.6,10.6,23.6,23.6c0,16.9-13.8,30.7-30.7,30.7h-97.7
		c-2.6,0-4.7,2.1-4.7,4.7s2.1,4.7,4.7,4.7h97.7c22.1,0,40.1-18,40.1-40.1C2537.6,42.9,2522.8,28.1,2504.6,28.1z"/>
	<path d="M2399.8,65.8h43.9c14.8,0,26.8-12,26.8-26.8c0-12.3-10-22.4-22.4-22.4c-10.4,0-18.9,8.5-18.9,18.9c0,8.8,7.2,16,16,16
		c2.6,0,4.7-2.1,4.7-4.7c0-2.6-2.1-4.7-4.7-4.7c-3.6,0-6.6-3-6.6-6.6c0-5.2,4.2-9.4,9.4-9.4c7.2,0,13,5.8,13,13
		c0,9.6-7.8,17.4-17.4,17.4h-43.9c-2.6,0-4.7,2.1-4.7,4.7S2397.2,65.8,2399.8,65.8z"/>
	<path d="M2464.7,73.9H2404h-4.2c-2.6,0-4.7,2.1-4.7,4.7s2.1,4.7,4.7,4.7h4.2h60.7c2.6,0,4.7-2.1,4.7-4.7S2467.4,73.9,2464.7,73.9z"
		/>
</g>
<g>
	<path d="M2167.3,42.1c-3.1-6.4-9.6-10.7-16.8-10.7c-9.9,0-18,7.8-18.7,17.6c-6.5,1.2-11.4,7-11.4,13.9c0,7.8,6.2,14.2,13.9,14.2
		h32.9c9.5,0,17.2-7.9,17.2-17.5S2176.7,42.1,2167.3,42.1z M2167.2,69.6h-32.9c-3.7,0-6.6-3-6.6-6.6c0-3.7,3-6.6,6.6-6.6
		c0.2,0,0.5,0,0.8,0.1c1.1,0.1,2.2-0.3,3-1.1s1.2-2,1-3.2c-0.1-0.6-0.1-1.1-0.1-1.7c0-6.3,5.1-11.5,11.5-11.5c5,0,9.5,3.4,11,8.2
		c0.5,1.8,2.3,2.9,4.1,2.6c0.6-0.1,1.1-0.1,1.7-0.1c5.5,0,9.9,4.5,9.9,10C2177.1,65.1,2172.7,69.6,2167.2,69.6z"/>
	<g>
		<g>
			<path class="st0" d="M2230.1,52.1c-0.6,0-1.2,0-1.9,0.1c-5.1-12.1-17.3-20.2-30.9-20.2c-18.4,0-33.4,14.7-33.4,32.7
				c0,0.1,0,0.1,0,0.2c-12.3,0.9-22.1,11.1-22.1,23.4c0,13,10.7,23.5,24,23.5h64.3c16.8,0,30.4-13.4,30.4-29.8
				C2260.5,65.5,2246.8,52.1,2230.1,52.1z"/>
			<path class="st0" d="M2230.1,52.1c-0.6,0-1.2,0-1.9,0.1c-5.1-12.1-17.3-20.2-30.9-20.2c-18.4,0-33.4,14.7-33.4,32.7
				c0,0.1,0,0.1,0,0.2c-12.3,0.9-22.1,11.1-22.1,23.4c0,13,10.7,23.5,24,23.5h64.3c16.8,0,30.4-13.4,30.4-29.8
				C2260.5,65.5,2246.8,52.1,2230.1,52.1z"/>
		</g>
		<g>
			<path class="st0" d="M2230.1,52.1c-0.6,0-1.2,0-1.9,0.1c-5.1-12.1-17.3-20.2-30.9-20.2c-18.4,0-33.4,14.7-33.4,32.7
				c0,0.1,0,0.1,0,0.2c-12.3,0.9-22.1,11.1-22.1,23.4c0,13,10.7,23.5,24,23.5h64.3c16.8,0,30.4-13.4,30.4-29.8
				C2260.5,65.5,2246.8,52.1,2230.1,52.1z"/>
			<path d="M2230.1,52.1c-0.6,0-1.2,0-1.9,0.1c-5.1-12.1-17.3-20.2-30.9-20.2c-18.4,0-33.4,14.7-33.4,32.7c0,0.1,0,0.1,0,0.2
				c-12.3,0.9-22.1,11.1-22.1,23.4c0,13,10.7,23.5,24,23.5h64.3c16.8,0,30.4-13.4,30.4-29.8C2260.5,65.5,2246.8,52.1,2230.1,52.1z
				 M2230.1,104h-64.3c-8.9,0-16.1-7-16.1-15.7s7.2-15.7,16.1-15.7c0.5,0,1.2,0,1.9,0.1c1.2,0.1,2.4-0.3,3.3-1.2
				c0.8-0.9,1.2-2.1,1.1-3.3c-0.2-1.2-0.3-2.5-0.3-3.6c0-13.7,11.5-24.9,25.6-24.9c11.2,0,21.3,7.3,24.5,17.8c0.6,1.9,2.5,3,4.4,2.7
				c1.3-0.2,2.6-0.3,3.8-0.3c12.5,0,22.6,9.9,22.6,22C2252.7,94.1,2242.5,104,2230.1,104z"/>
		</g>
	</g>
</g>
<g>
	<path d="M2739.2,112.1c-2.4,0-4.3,2-4.3,4.4v12.6c0,2.4,1.9,4.4,4.3,4.4c2.4,0,4.3-2,4.3-4.4v-12.6
		C2743.5,114.1,2741.6,112.1,2739.2,112.1z"/>
	<path d="M2739.2,25.1c2.4,0,4.3-2,4.3-4.4V8.1c0-2.4-1.9-4.4-4.3-4.4c-2.4,0-4.3,2-4.3,4.4v12.6
		C2734.9,23.1,2736.9,25.1,2739.2,25.1z"/>
	<path d="M2703.4,37.9c0.8,0.9,1.9,1.3,3,1.3s2.2-0.4,3-1.3c1.7-1.7,1.7-4.5,0-6.3l-8.6-8.9c-1.7-1.7-4.4-1.7-6.1,0
		c-1.7,1.7-1.7,4.5,0,6.3L2703.4,37.9z"/>
	<path d="M2697.2,68.6c0-2.4-1.9-4.4-4.3-4.4h-12.2c-2.4,0-4.3,2-4.3,4.4s1.9,4.4,4.3,4.4h12.2C2695.3,73.1,2697.2,71.1,2697.2,68.6
		z"/>
	<path d="M2772,39.2c1.1,0,2.2-0.4,3-1.3l8.6-8.9c1.7-1.7,1.7-4.5,0-6.3c-1.7-1.7-4.4-1.7-6.1,0l-8.6,8.9c-1.7,1.7-1.7,4.5,0,6.3
		C2769.8,38.7,2770.9,39.2,2772,39.2z"/>
	<path d="M2703.4,99.4l-8.6,8.9c-1.7,1.7-1.7,4.5,0,6.3c0.8,0.9,1.9,1.3,3,1.3s2.2-0.4,3-1.3l8.6-8.9c1.7-1.7,1.7-4.5,0-6.3
		C2707.8,97.7,2705.1,97.7,2703.4,99.4z"/>
	<path d="M2772.6,68.6c0-19-15-34.5-33.3-34.5c-18.4,0-33.3,15.5-33.3,34.5s15,34.5,33.3,34.5S2772.6,87.7,2772.6,68.6z
		 M2714.4,68.6c0-14.1,11.1-25.7,24.8-25.7s24.8,11.5,24.8,25.7c0,14.1-11.1,25.7-24.8,25.7C2725.6,94.3,2714.4,82.8,2714.4,68.6z"
		/>
	<g>
		<path class="st0" d="M2807.3,62.8c-3.8-7.9-11.9-13.2-20.8-13.2c-12.2,0-22.2,9.6-23.1,21.8c-8,1.5-14.1,8.7-14.1,17.2
			c0,9.7,7.7,17.5,17.2,17.5h40.7c11.7,0,21.3-9.7,21.3-21.7C2828.5,72.5,2819,62.8,2807.3,62.8z"/>
		<path d="M2807.3,62.8c-3.8-7.9-11.9-13.2-20.8-13.2c-12.2,0-22.2,9.6-23.1,21.8c-8,1.5-14.1,8.7-14.1,17.2
			c0,9.7,7.7,17.5,17.2,17.5h40.7c11.7,0,21.3-9.7,21.3-21.7C2828.5,72.5,2819,62.8,2807.3,62.8z M2807.2,96.8h-40.7
			c-4.5,0-8.2-3.7-8.2-8.2s3.7-8.2,8.2-8.2c0.3,0,0.6,0,1,0.1c1.4,0.2,2.8-0.3,3.7-1.4c1-1,1.4-2.5,1.2-3.9
			c-0.1-0.7-0.2-1.4-0.2-2.1c0-7.9,6.4-14.2,14.2-14.2c6.2,0,11.8,4.2,13.6,10.2c0.7,2.2,2.8,3.6,5.1,3.2c0.7-0.1,1.4-0.2,2.1-0.2
			c6.8,0,12.3,5.5,12.3,12.3C2819.5,91.2,2814,96.8,2807.2,96.8z"/>
	</g>
	<path class="st1" d="M2765.6,128.1l9-9.3c1.2-1.3,1.2-3.3,0-4.6c-1.2-1.3-3.2-1.3-4.4,0l-9,9.3c-1.2,1.3-1.2,3.3,0,4.6
		c0.6,0.6,1.4,1,2.2,1C2764.2,129,2765,128.7,2765.6,128.1z"/>
	<path class="st1" d="M2784.8,128.1l9-9.3c1.2-1.3,1.2-3.3,0-4.6c-1.2-1.3-3.2-1.3-4.4,0l-9,9.3c-1.2,1.3-1.2,3.3,0,4.6
		c0.6,0.6,1.4,1,2.2,1C2783.4,129,2784.2,128.7,2784.8,128.1z"/>
	<path class="st1" d="M2804,128.1l9-9.3c1.2-1.3,1.2-3.3,0-4.6c-1.2-1.3-3.2-1.3-4.4,0l-9,9.3c-1.2,1.3-1.2,3.3,0,4.6
		c0.6,0.6,1.4,1,2.2,1C2802.6,129,2803.4,128.7,2804,128.1z"/>
</g>
<g>
	<path d="M3038.2,111.4c-2.4,0-4.4,2-4.4,4.5v12.9c0,2.5,2,4.5,4.4,4.5s4.4-2,4.4-4.5V116C3042.6,113.5,3040.6,111.4,3038.2,111.4z"
		/>
	<path d="M3038.2,22.3c2.4,0,4.4-2,4.4-4.5v-13c0-2.5-2-4.5-4.4-4.5s-4.4,2-4.4,4.5v12.9C3033.8,20.3,3035.8,22.3,3038.2,22.3z"/>
	<path d="M3001.6,35.3c0.9,0.9,2,1.3,3.1,1.3s2.2-0.4,3.1-1.3c1.7-1.8,1.7-4.7,0-6.4l-8.8-9.1c-1.7-1.8-4.5-1.8-6.2,0
		s-1.7,4.7,0,6.4L3001.6,35.3z"/>
	<path d="M2995.2,66.9c0-2.5-2-4.5-4.4-4.5h-12.5c-2.4,0-4.4,2-4.4,4.5s2,4.5,4.4,4.5h12.5C2993.2,71.4,2995.2,69.4,2995.2,66.9z"/>
	<path d="M3071.7,36.7c1.1,0,2.2-0.4,3.1-1.3l8.8-9.1c1.7-1.8,1.7-4.7,0-6.4c-1.7-1.8-4.5-1.8-6.2,0l-8.8,9.1
		c-1.7,1.8-1.7,4.7,0,6.4C3069.5,36.2,3070.6,36.7,3071.7,36.7z"/>
	<path d="M3001.5,98.4l-8.8,9.1c-1.7,1.8-1.7,4.7,0,6.4c0.9,0.9,2,1.3,3.1,1.3s2.2-0.4,3.1-1.3l8.8-9.1c1.7-1.8,1.7-4.7,0-6.4
		C3006,96.6,3003.3,96.6,3001.5,98.4z"/>
	<path d="M3072.3,66.9c0-19.5-15.3-35.4-34.1-35.4S3004,47.4,3004,66.9s15.3,35.4,34.2,35.4C3057,102.2,3072.3,86.4,3072.3,66.9z
		 M3012.8,66.9c0-14.5,11.4-26.3,25.4-26.3s25.4,11.8,25.4,26.3s-11.4,26.3-25.4,26.3C3024.2,93.1,3012.8,81.3,3012.8,66.9z"/>
</g>
<g>
	<path class="st0" d="M3104.5,78.5c-0.5-1.1-1.5-1.8-2.7-1.8h-19.9l12.5-22.7c0.5-1,0.5-2.1,0-3.1s-1.5-1.5-2.6-1.5h-20.5
		c-1.1,0-2.1,0.6-2.6,1.6l-24.8,45.2c-0.5,1-0.5,2.1,0,3.1s1.5,1.5,2.6,1.5h21.4l-5.4,23.5c-0.3,1.4,0.3,2.8,1.6,3.5
		c0.4,0.2,0.9,0.3,1.3,0.3c0.9,0,1.7-0.4,2.3-1.1l36.5-45.2C3104.8,80.9,3105,79.6,3104.5,78.5z"/>
	<path d="M3104.5,78.5c-0.5-1.1-1.5-1.8-2.7-1.8h-19.9l12.5-22.7c0.5-1,0.5-2.1,0-3.1s-1.5-1.5-2.6-1.5h-20.5
		c-1.1,0-2.1,0.6-2.6,1.6l-24.8,45.2c-0.5,1-0.5,2.1,0,3.1s1.5,1.5,2.6,1.5h21.4l-5.4,23.5c-0.3,1.4,0.3,2.8,1.6,3.5
		c0.4,0.2,0.9,0.3,1.3,0.3c0.9,0,1.7-0.4,2.3-1.1l36.5-45.2C3104.8,80.9,3105,79.6,3104.5,78.5z M3071.2,112.9l3.3-14.5
		c0.2-0.9,0-1.9-0.6-2.6s-1.4-1.2-2.3-1.2h-20.1l21.4-39h13.6L3074,78.3c-0.5,1-0.5,2.1,0,3.1s1.5,1.5,2.6,1.5h18.6L3071.2,112.9z"
		/>
</g>
<g>
	<path d="M130.1,60.8c-3.7-7.7-11.6-12.9-20.2-12.9c-5.3,0-10.2,1.9-14.1,5.1c-5.1-12.8-17.3-21.8-31.5-21.8
		c-18.8,0-34.1,15.8-34.1,35.3c0,19.4,15.3,35.3,34.1,35.3c5.3,0,10.3-1.2,14.7-3.5c3,2.9,7,4.6,11.4,4.6H130
		c11.4,0,20.7-9.5,20.7-21.1C150.7,70.3,141.4,60.9,130.1,60.8z M73.7,85.9c0,1.6,0.2,3.1,0.6,4.6c-3.1,1.4-6.5,2.2-10.1,2.2
		c-14,0-25.3-11.8-25.3-26.2c0-14.5,11.4-26.2,25.3-26.2c12.4,0,22.8,9.3,24.9,21.6c-1,2.3-1.6,4.7-1.8,7.3
		C79.6,70.6,73.7,77.6,73.7,85.9z M130,93.9H90.4c-1.3,0-2.6-0.3-3.7-0.9c-2.5-1.3-4.3-4-4.3-7.1c0-0.5,0-0.9,0.1-1.4
		c0.4-2.4,1.9-4.4,3.9-5.6c1.2-0.7,2.5-1,3.9-1c0.3,0,0.6,0,1,0.1c1.3,0.2,2.7-0.3,3.6-1.3s1.4-2.4,1.2-3.8c-0.1-0.7-0.1-1.4-0.1-2
		c0-2.7,0.8-5.2,2.1-7.4c2.4-3.9,6.7-6.5,11.7-6.5c6.1,0,11.5,4.1,13.2,9.9c0.6,2.2,2.7,3.5,4.9,3.1c0.7-0.1,1.3-0.2,2-0.2
		c6.6,0,12,5.4,12,12C141.9,88.5,136.6,93.9,130,93.9z"/>
	<path d="M64.2,111c-2.4,0-4.4,2-4.4,4.5v12.9c0,2.5,2,4.5,4.4,4.5s4.4-2,4.4-4.5v-12.9C68.6,113,66.6,111,64.2,111z"/>
	<path d="M64.2,22c2.4,0,4.4-2,4.4-4.5V4.6c0-2.5-2-4.5-4.4-4.5s-4.4,2-4.4,4.5v12.9C59.9,20,61.8,22,64.2,22z"/>
	<path d="M27.7,35.1c0.9,0.9,2,1.3,3.1,1.3s2.2-0.4,3.1-1.3c1.7-1.8,1.7-4.6,0-6.4l-8.8-9.1c-1.7-1.8-4.5-1.8-6.2,0s-1.7,4.6,0,6.4
		L27.7,35.1z"/>
	<path d="M21.3,66.5c0-2.5-2-4.5-4.4-4.5H4.5c-2.4,0-4.4,2-4.4,4.5s2,4.5,4.4,4.5h12.4C19.3,71,21.3,69,21.3,66.5z"/>
	<path d="M97.7,36.4c1.1,0,2.2-0.4,3.1-1.3l8.8-9.1c1.7-1.8,1.7-4.6,0-6.4s-4.5-1.8-6.2,0l-8.8,9.1c-1.7,1.8-1.7,4.6,0,6.4
		C95.4,35.9,96.5,36.4,97.7,36.4z"/>
	<path d="M27.7,97.9l-8.8,9.1c-1.7,1.8-1.7,4.6,0,6.4c0.9,0.9,2,1.3,3.1,1.3s2.2-0.4,3.1-1.3l8.8-9.1c1.7-1.8,1.7-4.6,0-6.4
		C32.2,96.2,29.4,96.2,27.7,97.9z"/>
	<path class="st1" d="M88.9,125.3l8.5-8.8c1.2-1.2,1.2-3.1,0-4.3c-1.2-1.2-3-1.2-4.2,0l-8.5,8.8c-1.2,1.2-1.2,3.1,0,4.3
		c0.6,0.6,1.3,0.9,2.1,0.9C87.5,126.2,88.3,125.9,88.9,125.3z"/>
	<path class="st1" d="M107,125.3l8.5-8.8c1.2-1.2,1.2-3.1,0-4.3c-1.2-1.2-3-1.2-4.2,0l-8.5,8.8c-1.2,1.2-1.2,3.1,0,4.3
		c0.6,0.6,1.3,0.9,2.1,0.9C105.7,126.2,106.4,125.9,107,125.3z"/>
	<path class="st1" d="M125.2,125.3l8.5-8.8c1.2-1.2,1.2-3.1,0-4.3c-1.2-1.2-3-1.2-4.2,0l-8.5,8.8c-1.2,1.2-1.2,3.1,0,4.3
		c0.6,0.6,1.3,0.9,2.1,0.9C123.8,126.2,124.6,125.9,125.2,125.3z"/>
</g>
</svg>
